<svg width="64" height="64" viewBox="0 0 64 64" fill="none" xmlns="http://www.w3.org/2000/svg">
<rect width="64" height="64" rx="12" fill="url(#paint0_linear_5_55)"/>
<path fill-rule="evenodd" clip-rule="evenodd" d="M16.7334 39.5159H21.2123L28.6664 45.2526L28.6678 45.2537C29.5672 45.9497 30.785 46.0711 31.8041 45.5664C32.8268 45.0662 33.474 44.0257 33.4705 42.8871V21.1129C33.474 19.9743 32.8268 18.9337 31.8039 18.4336C30.7848 17.9288 29.5669 18.0503 28.6675 18.7465L28.6664 18.7474L21.2123 24.4841H16.7334C15.0876 24.4862 13.7535 25.8192 13.75 27.465V36.5334V36.5349C13.7535 38.1808 15.0876 39.5138 16.7334 39.5159ZM35.6135 31.9482L35.61 32L35.6135 32.0518C35.6756 32.9475 36.4208 33.6542 37.3318 33.6542H41.2599V37.6349C41.2599 38.5571 42.0075 39.3047 42.9297 39.3047C43.8519 39.3047 44.5996 38.5571 44.5996 37.6349V33.6542H48.5276C49.4386 33.6542 50.1838 32.9475 50.2459 32.0518L50.2494 32L50.2459 31.9482C50.1838 31.0525 49.4386 30.3458 48.5276 30.3458H44.5996V26.3651C44.5996 25.4429 43.8519 24.6953 42.9297 24.6953C42.0075 24.6953 41.2599 25.4429 41.2599 26.3651V30.3458H37.3318C36.4208 30.3458 35.6756 31.0525 35.6135 31.9482Z" fill="white"/>
<defs>
<linearGradient id="paint0_linear_5_55" x1="0.0176978" y1="0.0891068" x2="77.0472" y2="36.0337" gradientUnits="userSpaceOnUse">
<stop stop-color="#A975FF"/>
<stop offset="1" stop-color="#7443FF"/>
</linearGradient>
</defs>
</svg>
